<svg data-v-698f671c="" width="30" height="30" fill="none" xmlns="http://www.w3.org/2000/svg" viewBox="0 0 30 30" style="height: 20px;" data-v-21aa7ea0=""><path d="m26.6081 5.5155-9.486 9.486 9.4845 9.4845c2.1179-2.586 3.3929-5.889 3.3929-9.486 0-3.597-1.275-6.897-3.3914-9.4845ZM15.0012 12.8805l9.4859-9.48601C21.9011 1.275 18.5966 0 14.9997 0c-3.597 0-6.90003 1.275-9.48603 3.39299l9.48753 9.48751ZM12.8805 15.0015l-9.48751-9.486C1.275 8.1 0 11.403 0 15c0 3.597 1.275 6.9 3.39299 9.4875l9.48751-9.486ZM15.0012 17.1225l-9.48753 9.486C8.10117 28.725 11.4027 30 14.9997 30c3.5969 0 6.8999-1.275 9.4859-3.3915l-9.4844-9.486Z" fill="currentColor"></path></svg>