<svg data-v-698f671c="" width="30" height="30" fill="none" xmlns="http://www.w3.org/2000/svg" viewBox="0 0 30 30" style="height: 20px;" data-v-21aa7ea0=""><path d="M2.5 5c.2225 0 .435-.03625.64-.0925L7.24125 9.01l1.7675-1.7675L4.9075 3.14C4.96125 2.935 5 2.7225 5 2.5 5 1.12125 3.88125 0 2.5 0S0 1.12125 0 2.5C0 3.88125 1.11875 5 2.5 5ZM2.5 17.5c.9225 0 1.72125-.505 2.15375-1.25H7.5v-2.5H4.65375C4.22 13.0075 3.4225 12.5 2.5 12.5 1.11875 12.5 0 13.6213 0 15c0 1.3813 1.11875 2.5 2.5 2.5ZM7.24125 20.9924 3.14 25.0937c-.205-.055-.4175-.0938-.64-.0938-1.38125 0-2.5 1.12-2.5 2.5 0 1.3813 1.11875 2.5 2.5 2.5s2.5-1.1187 2.5-2.5c0-.2212-.03875-.4337-.0925-.64l4.10125-4.1012-1.7675-1.7663ZM27.5 12.5c-.9225 0-1.72.5075-2.1537 1.25H22.5v2.5h2.8463c.4325.745 1.23 1.25 2.1537 1.25 1.3812 0 2.5-1.1187 2.5-2.5 0-1.3787-1.1188-2.5-2.5-2.5ZM22.7587 9.00875l4.1013-4.1025c.205.0575.4175.09375.64.09375C28.8812 5 30 3.88125 30 2.5 30 1.12125 28.8812 0 27.5 0 26.1187 0 25 1.12125 25 2.5c0 .2225.0387.435.0925.64l-4.1013 4.1025 1.7675 1.76625ZM27.5 24.9999c-.2225 0-.435.0388-.64.0938l-4.1013-4.1013-1.7675 1.7675 4.1013 4.1013c-.0538.205-.0925.4175-.0925.6387 0 1.3813 1.1187 2.5 2.5 2.5 1.3812 0 2.5-1.1187 2.5-2.5 0-1.38-1.1188-2.5-2.5-2.5ZM20 15c0-2.755-2.2433-5-5-5s-5 2.245-5 5c0 2.7567 2.2433 5 5 5s5-2.2433 5-5Z" fill="currentColor"></path></svg>