<svg data-v-28d89ebf="" height="16" viewBox="0 0 32 36" fill="none" xmlns="http://www.w3.org/2000/svg"><path d="M3.64359 28.0207L4.14359 27.1547L3.64359 28.0207L13.5 33.7113C15.047 34.6045 16.953 34.6045 18.5 33.7113L28.3564 28.0207C29.9034 27.1276 30.8564 25.4769 30.8564 23.6906V12.3094C30.8564 10.5231 29.9034 8.87244 28.3564 7.97927L18.5 2.28868C16.953 1.39551 15.047 1.39551 13.5 2.28867L3.64359 7.97927C2.09659 8.87244 1.14359 10.5231 1.14359 12.3094V23.6906C1.14359 25.4769 2.09659 27.1276 3.64359 28.0207Z" fill="#45B26B" stroke="#FCFCFD" stroke-width="2"></path> <path fill-rule="evenodd" clip-rule="evenodd" d="M22.7071 13.2929C23.0976 13.6834 23.0976 14.3166 22.7071 14.7071L14.7071 22.7071C14.3166 23.0976 13.6834 23.0976 13.2929 22.7071L9.29289 18.7071C8.90237 18.3166 8.90237 17.6834 9.29289 17.2929C9.68342 16.9024 10.3166 16.9024 10.7071 17.2929L14 20.5858L21.2929 13.2929C21.6834 12.9024 22.3166 12.9024 22.7071 13.2929Z" fill="white"></path></svg>