<svg data-v-43585a1d="" width="16" height="16" fill="none" xmlns="http://www.w3.org/2000/svg" viewBox="0 0 16 16" class="text-white" style="height: 14px;"><path d="M8.10621 0c1.64288 2.72592 3.27249 5.42945 4.90629 8.14011-.0428.02952-.0754.05395-.111.0743-1.5625.92425-3.12493 1.84749-4.68638 2.77279-.07125.0417-.12418.0549-.20256.0091-1.57774-.9364-3.15649-1.86883-4.73525-2.80224-.02341-.01426-.04479-.03054-.07736-.05293C4.83266 5.43251 6.46129 2.72898 8.10621 0Z" fill="currentColor"></path> <path d="M3.25445 9.12012c.27992.1649.56086.3298.84078.49571 1.2968.76547 2.5936 1.53087 3.88734 2.30047.09467.056.15777.0529.2504-.0021 1.54008-.914 3.08323-1.823 4.62533-2.73301.0346-.02036.0702-.03868.1191-.04275-1.6195 2.28106-3.23998 4.56326-4.87268 6.86166-1.63067-2.2984-3.25014-4.5806-4.86961-6.86166.00814-.00611.01425-.01222.01934-.01832Z" fill="currentColor"></path></svg>