<svg data-v-62aaa4ef="" width="16" height="16" fill="none" xmlns="http://www.w3.org/2000/svg" viewBox="0 0 16 16"><path d="M2.99985 4.50189c.82834 0 1.49984-.6715 1.49984-1.49985 0-.82834-.6715-1.49984-1.49984-1.49984C2.1715 1.5022 1.5 2.1737 1.5 3.00204c0 .82835.6715 1.49985 1.49985 1.49985ZM12.9999 4.50189c.8283 0 1.4998-.6715 1.4998-1.49985 0-.82834-.6715-1.49984-1.4998-1.49984-.8284 0-1.4999.6715-1.4999 1.49984 0 .82835.6715 1.49985 1.4999 1.49985ZM12.9999 14.4997c.8283 0 1.4998-.6715 1.4998-1.4999 0-.8283-.6715-1.4998-1.4998-1.4998-.8284 0-1.4999.6715-1.4999 1.4998 0 .8284.6715 1.4999 1.4999 1.4999ZM2.99985 14.4997c.82834 0 1.49984-.6715 1.49984-1.4999 0-.8283-.6715-1.4998-1.49984-1.4998C2.1715 11.5 1.5 12.1715 1.5 12.9998c0 .8284.6715 1.4999 1.49985 1.4999ZM13.9998 10.0018c1.1044 0 1.9998-.89535 1.9998-1.99981 0-1.10445-.8954-1.99979-1.9998-1.99979-1.1045 0-1.9998.89534-1.9998 1.99979 0 1.10446.8953 1.99981 1.9998 1.99981ZM7.99882 10.0018c1.10445 0 1.99979-.89535 1.99979-1.99981 0-1.10445-.89534-1.99979-1.99979-1.99979-1.10446 0-1.9998.89534-1.9998 1.99979 0 1.10446.89534 1.99981 1.9998 1.99981ZM7.99882 3.99959c1.10445 0 1.99979-.89534 1.99979-1.9998C9.99861.895339 9.10327 0 7.99882 0c-1.10446 0-1.9998.895339-1.9998 1.99979 0 1.10446.89534 1.9998 1.9998 1.9998ZM1.99979 10.0018c1.10446 0 1.9998-.89535 1.9998-1.99981 0-1.10445-.89534-1.99979-1.9998-1.99979C.895339 6.0022 0 6.89754 0 8.00199c0 1.10446.895339 1.99981 1.99979 1.99981ZM7.99882 15.9996c1.10445 0 1.99979-.8954 1.99979-1.9998 0-1.1045-.89534-1.9998-1.99979-1.9998-1.10446 0-1.9998.8953-1.9998 1.9998 0 1.1044.89534 1.9998 1.9998 1.9998Z" fill="currentColor"></path></svg>